<svg width="260" height="169" viewBox="0 0 260 169" fill="none" xmlns="http://www.w3.org/2000/svg">
<path d="M21.842 155.048H17.93V166.928H15.362V145.088H17.93V152.648H21.842V155.048ZM12.386 154.088C12.386 154.888 12.242 155.64 11.954 156.344C11.682 157.032 11.29 157.632 10.778 158.144C10.282 158.672 9.69003 159.088 9.00203 159.392C8.31403 159.68 7.56203 159.824 6.74603 159.824C5.93003 159.824 5.17803 159.68 4.49003 159.392C3.80203 159.088 3.21003 158.672 2.71403 158.144C2.21803 157.632 1.83403 157.032 1.56203 156.344C1.29003 155.64 1.15403 154.888 1.15403 154.088C1.15403 153.288 1.29803 152.544 1.58603 151.856C1.87403 151.152 2.27403 150.536 2.78603 150.008C3.28203 149.496 3.86603 149.088 4.53803 148.784C5.22603 148.48 5.96203 148.328 6.74603 148.328C7.56203 148.328 8.31403 148.48 9.00203 148.784C9.69003 149.088 10.282 149.504 10.778 150.032C11.29 150.544 11.682 151.152 11.954 151.856C12.242 152.56 12.386 153.304 12.386 154.088ZM9.74603 154.088C9.74603 153.688 9.67403 153.288 9.53003 152.888C9.40203 152.488 9.21003 152.128 8.95403 151.808C8.71403 151.488 8.40203 151.232 8.01803 151.04C7.65003 150.832 7.22603 150.728 6.74603 150.728C6.28203 150.728 5.86603 150.832 5.49803 151.04C5.13003 151.232 4.82603 151.48 4.58603 151.784C4.33003 152.104 4.13003 152.464 3.98603 152.864C3.85803 153.264 3.79403 153.664 3.79403 154.064C3.79403 154.496 3.85803 154.912 3.98603 155.312C4.13003 155.712 4.33003 156.072 4.58603 156.392C4.84203 156.696 5.15403 156.944 5.52203 157.136C5.89003 157.328 6.29803 157.424 6.74603 157.424C7.21003 157.424 7.62603 157.336 7.99403 157.16C8.37803 156.968 8.69803 156.712 8.95403 156.392C9.21003 156.088 9.40203 155.736 9.53003 155.336C9.67403 154.936 9.74603 154.52 9.74603 154.088ZM40.4784 158.696H37.9104V145.088H40.4784V158.696ZM35.5104 156.008L33.7104 157.76L29.6784 154.112C28.9104 154.928 28.0624 155.648 27.1344 156.272C26.2224 156.896 25.2704 157.424 24.2784 157.856L22.5504 155.912C23.5584 155.512 24.4784 155.04 25.3104 154.496C26.1424 153.936 26.8704 153.352 27.4944 152.744C28.1184 152.136 28.6304 151.52 29.0304 150.896C29.4464 150.256 29.7504 149.648 29.9424 149.072H24.0384V146.648H33.2064C33.1104 147.656 32.8944 148.616 32.5584 149.528C32.2384 150.44 31.8144 151.296 31.2864 152.096L35.5104 156.008ZM39.8544 168.008H37.2624V162.008H28.0464V159.584H39.8544V168.008ZM71.1729 153.368H67.4049V158.768H64.8129V145.088H67.4049V150.944H71.1729V153.368ZM59.3649 148.496C59.0769 148.528 58.5729 148.56 57.8529 148.592C57.1489 148.608 56.3329 148.6 55.4049 148.568C54.5569 148.488 53.8609 148.328 53.3169 148.088C52.7729 147.832 52.4289 147.64 52.2849 147.512L53.0769 145.568C53.1569 145.6 53.2769 145.648 53.4369 145.712C53.5969 145.776 53.7889 145.84 54.0129 145.904C54.2209 145.968 54.4609 146.032 54.7329 146.096C55.0049 146.144 55.3009 146.176 55.6209 146.192C56.4369 146.224 57.1889 146.232 57.8769 146.216C58.5809 146.184 59.0769 146.152 59.3649 146.12V148.496ZM62.6289 156.392L61.0689 158.384L56.8929 155.744C56.0769 156.464 55.2369 157.032 54.3729 157.448C53.5249 157.864 52.6689 158.208 51.8049 158.48L50.2929 156.488C52.0689 155.944 53.4929 155.264 54.5649 154.448C55.6529 153.616 56.4769 152.736 57.0369 151.808H51.4209V149.456H60.7329C60.6049 150.112 60.3969 150.816 60.1089 151.568C59.8369 152.32 59.3729 153.088 58.7169 153.872L62.6289 156.392ZM67.1409 167.576H55.6689V159.512H67.1409V167.576ZM64.5489 165.176V161.936H58.2849V165.176H64.5489ZM89.9293 166.928H87.3613V158.216H83.0653V155.84H87.3613V152.864H83.0653V150.464H87.3613V145.088H89.9293V166.928ZM82.8973 154.088C82.8973 154.888 82.7533 155.64 82.4653 156.344C82.1933 157.032 81.8013 157.632 81.2893 158.144C80.7933 158.672 80.2013 159.088 79.5133 159.392C78.8253 159.68 78.0733 159.824 77.2573 159.824C76.4413 159.824 75.6893 159.68 75.0013 159.392C74.3133 159.088 73.7213 158.672 73.2253 158.144C72.7293 157.632 72.3453 157.032 72.0733 156.344C71.8013 155.64 71.6653 154.888 71.6653 154.088C71.6653 153.288 71.8093 152.544 72.0973 151.856C72.3853 151.152 72.7853 150.536 73.2973 150.008C73.7933 149.496 74.3773 149.088 75.0493 148.784C75.7373 148.48 76.4733 148.328 77.2573 148.328C78.0733 148.328 78.8253 148.48 79.5133 148.784C80.2013 149.088 80.7933 149.504 81.2893 150.032C81.8013 150.544 82.1933 151.152 82.4653 151.856C82.7533 152.56 82.8973 153.304 82.8973 154.088ZM80.2573 154.088C80.2573 153.688 80.1853 153.288 80.0413 152.888C79.9133 152.488 79.7213 152.128 79.4653 151.808C79.2253 151.488 78.9133 151.232 78.5293 151.04C78.1613 150.832 77.7373 150.728 77.2573 150.728C76.7933 150.728 76.3773 150.832 76.0093 151.04C75.6413 151.232 75.3373 151.48 75.0973 151.784C74.8413 152.104 74.6413 152.464 74.4973 152.864C74.3693 153.264 74.3053 153.664 74.3053 154.064C74.3053 154.496 74.3693 154.912 74.4973 155.312C74.6413 155.712 74.8413 156.072 75.0973 156.392C75.3533 156.696 75.6653 156.944 76.0333 157.136C76.4013 157.328 76.8093 157.424 77.2573 157.424C77.7213 157.424 78.1373 157.336 78.5053 157.16C78.8893 156.968 79.2093 156.712 79.4653 156.392C79.7213 156.088 79.9133 155.736 80.0413 155.336C80.1853 154.936 80.2573 154.52 80.2573 154.088ZM112.795 154.016H109.051V161.456H106.483V145.088H109.051V151.544H112.795V154.016ZM101.779 148.808C101.379 148.84 100.715 148.864 99.7869 148.88C98.8749 148.88 97.8909 148.856 96.8349 148.808C96.0029 148.728 95.3149 148.568 94.7709 148.328C94.2269 148.088 93.8749 147.912 93.7149 147.8L94.5309 145.76C94.6109 145.808 94.7309 145.864 94.8909 145.928C95.0509 145.992 95.2429 146.064 95.4669 146.144C95.6749 146.208 95.9149 146.272 96.1869 146.336C96.4589 146.384 96.7549 146.416 97.0749 146.432C98.0029 146.48 98.9149 146.496 99.8109 146.48C100.707 146.464 101.363 146.44 101.779 146.408V148.808ZM104.419 151.928H98.9229C98.3469 151.928 97.8349 151.976 97.3869 152.072C96.9389 152.168 96.5229 152.424 96.1389 152.84C95.9309 153.064 95.7709 153.328 95.6589 153.632C95.5629 153.92 95.5149 154.216 95.5149 154.52C95.5309 154.84 95.5949 155.144 95.7069 155.432C95.8349 155.704 96.0189 155.928 96.2589 156.104C96.4989 156.296 96.7789 156.432 97.0989 156.512C97.4349 156.592 97.7629 156.624 98.0829 156.608C98.4029 156.592 98.7149 156.528 99.0189 156.416C99.3229 156.304 99.5789 156.144 99.7869 155.936C100.075 155.68 100.211 155.304 100.195 154.808C100.195 154.312 99.9389 153.928 99.4269 153.656L101.275 152.024C101.627 152.264 101.931 152.576 102.187 152.96C102.443 153.344 102.611 153.768 102.691 154.232C102.771 154.712 102.755 155.208 102.643 155.72C102.531 156.232 102.291 156.736 101.923 157.232C101.587 157.68 101.131 158.048 100.555 158.336C99.9789 158.608 99.3549 158.792 98.6829 158.888C98.0109 158.968 97.3389 158.952 96.6669 158.84C95.9949 158.728 95.4109 158.488 94.9149 158.12C94.3549 157.736 93.9309 157.28 93.6429 156.752C93.3549 156.224 93.1789 155.68 93.1149 155.12C93.0509 154.576 93.0829 154.056 93.2109 153.56C93.3389 153.064 93.5389 152.648 93.8109 152.312C93.8109 152.296 93.8509 152.24 93.9309 152.144C94.0109 152.048 94.0909 151.976 94.1709 151.928H91.5069V149.72H104.419V151.928ZM109.339 167.528H97.3629V160.328H99.9549V165.08H109.339V167.528ZM137.268 157.88H125.22V147.536H137.268V157.88ZM141.708 164.24H121.188V161.816H130.068V158.168H132.612V161.816H141.708V164.24ZM134.724 155.432V149.936H127.764V155.432H134.724ZM160.561 158.456H158.017V145.088H160.561V158.456ZM153.841 151.472C153.841 152.208 153.689 152.888 153.385 153.512C153.097 154.136 152.705 154.672 152.209 155.12C151.713 155.584 151.129 155.944 150.457 156.2C149.801 156.456 149.113 156.584 148.393 156.584C147.673 156.584 146.985 156.456 146.329 156.2C145.689 155.928 145.129 155.568 144.649 155.12C144.169 154.656 143.785 154.112 143.497 153.488C143.225 152.864 143.089 152.192 143.089 151.472C143.089 150.752 143.225 150.088 143.497 149.48C143.769 148.856 144.145 148.312 144.625 147.848C145.089 147.4 145.641 147.048 146.281 146.792C146.937 146.52 147.641 146.384 148.393 146.384C149.161 146.384 149.873 146.512 150.529 146.768C151.185 147.008 151.761 147.352 152.257 147.8C152.753 148.248 153.137 148.784 153.409 149.408C153.697 150.032 153.841 150.72 153.841 151.472ZM160.129 167.576H148.657V159.296H160.129V167.576ZM151.273 151.472C151.273 150.704 150.985 150.064 150.409 149.552C149.849 149.024 149.177 148.76 148.393 148.76C147.625 148.76 146.969 149.016 146.425 149.528C145.897 150.04 145.633 150.68 145.633 151.448C145.633 152.248 145.897 152.904 146.425 153.416C146.969 153.928 147.625 154.184 148.393 154.184C149.161 154.184 149.833 153.928 150.409 153.416C150.985 152.904 151.273 152.256 151.273 151.472ZM157.513 165.176V161.72H151.273V165.176H157.513ZM180.786 166.928H178.218V145.088H180.786V166.928ZM174.33 154.088C174.33 154.888 174.186 155.64 173.898 156.344C173.626 157.032 173.234 157.632 172.722 158.144C172.226 158.672 171.634 159.088 170.946 159.392C170.258 159.68 169.506 159.824 168.69 159.824C167.858 159.824 167.098 159.68 166.41 159.392C165.722 159.088 165.13 158.672 164.634 158.144C164.138 157.632 163.754 157.032 163.482 156.344C163.21 155.64 163.074 154.888 163.074 154.088C163.074 153.288 163.218 152.544 163.506 151.856C163.794 151.152 164.194 150.536 164.706 150.008C165.202 149.496 165.794 149.088 166.482 148.784C167.17 148.48 167.906 148.328 168.69 148.328C169.506 148.328 170.258 148.48 170.946 148.784C171.634 149.088 172.226 149.504 172.722 150.032C173.234 150.544 173.626 151.152 173.898 151.856C174.186 152.56 174.33 153.304 174.33 154.088ZM171.69 154.088C171.69 153.688 171.618 153.288 171.474 152.888C171.346 152.488 171.154 152.128 170.898 151.808C170.658 151.488 170.346 151.232 169.962 151.04C169.594 150.832 169.17 150.728 168.69 150.728C168.226 150.728 167.81 150.832 167.442 151.04C167.074 151.232 166.762 151.48 166.506 151.784C166.25 152.104 166.05 152.464 165.906 152.864C165.778 153.264 165.714 153.664 165.714 154.064C165.714 154.496 165.778 154.912 165.906 155.312C166.05 155.712 166.258 156.072 166.53 156.392C166.786 156.696 167.098 156.944 167.466 157.136C167.834 157.328 168.242 157.424 168.69 157.424C169.154 157.424 169.57 157.336 169.938 157.16C170.322 156.968 170.642 156.712 170.898 156.392C171.154 156.088 171.346 155.736 171.474 155.336C171.618 154.936 171.69 154.52 171.69 154.088ZM208.745 157.496H206.201V152.192H201.881V149.792H206.201V145.088H208.745V157.496ZM201.569 151.232C201.569 151.968 201.417 152.648 201.113 153.272C200.825 153.896 200.433 154.432 199.937 154.88C199.441 155.344 198.857 155.704 198.185 155.96C197.529 156.216 196.841 156.344 196.121 156.344C195.401 156.344 194.721 156.216 194.081 155.96C193.441 155.688 192.881 155.328 192.401 154.88C191.921 154.416 191.537 153.872 191.249 153.248C190.977 152.624 190.841 151.952 190.841 151.232C190.841 150.512 190.977 149.84 191.249 149.216C191.521 148.592 191.889 148.056 192.353 147.608C192.833 147.144 193.393 146.784 194.033 146.528C194.673 146.272 195.369 146.144 196.121 146.144C196.889 146.144 197.601 146.272 198.257 146.528C198.913 146.768 199.489 147.112 199.985 147.56C200.481 148.008 200.865 148.544 201.137 149.168C201.425 149.792 201.569 150.48 201.569 151.232ZM210.665 166.112L208.889 167.816L205.985 164.816C205.505 165.584 204.961 166.216 204.353 166.712C203.761 167.224 203.201 167.56 202.673 167.72L202.121 167.072V167.696H193.745V158.216H196.337V160.832H199.529V158.216H202.121V165.104C203.017 164.528 203.657 163.808 204.041 162.944C204.441 162.064 204.641 161.192 204.641 160.328V158.216H207.305V160.304C207.305 160.656 207.281 161 207.233 161.336C207.185 161.672 207.121 162 207.041 162.32L210.665 166.112ZM199.001 151.232C199.001 150.464 198.721 149.824 198.161 149.312C197.601 148.784 196.921 148.52 196.121 148.52C195.353 148.52 194.705 148.776 194.177 149.288C193.649 149.8 193.385 150.44 193.385 151.208C193.385 152.024 193.649 152.688 194.177 153.2C194.705 153.696 195.353 153.944 196.121 153.944C196.889 153.944 197.561 153.696 198.137 153.2C198.713 152.688 199.001 152.032 199.001 151.232ZM199.529 165.296V163.256H196.337V165.296H199.529ZM228.994 166.928H226.426V155.264H221.962V155.168C221.834 155.84 221.61 156.464 221.29 157.04C220.97 157.6 220.57 158.088 220.09 158.504C219.61 158.92 219.058 159.248 218.434 159.488C217.81 159.712 217.138 159.824 216.418 159.824C215.602 159.824 214.85 159.68 214.162 159.392C213.474 159.088 212.882 158.672 212.386 158.144C211.89 157.632 211.506 157.032 211.234 156.344C210.962 155.64 210.826 154.888 210.826 154.088C210.826 153.288 210.97 152.544 211.258 151.856C211.546 151.152 211.946 150.536 212.458 150.008C212.954 149.496 213.538 149.088 214.21 148.784C214.898 148.48 215.634 148.328 216.418 148.328C217.138 148.328 217.81 148.448 218.434 148.688C219.058 148.928 219.61 149.256 220.09 149.672C220.57 150.088 220.97 150.584 221.29 151.16C221.61 151.72 221.834 152.328 221.962 152.984V152.84H226.426V145.088H228.994V166.928ZM219.418 154.088C219.418 153.688 219.346 153.288 219.202 152.888C219.074 152.488 218.882 152.128 218.626 151.808C218.386 151.488 218.074 151.232 217.69 151.04C217.322 150.832 216.898 150.728 216.418 150.728C215.954 150.728 215.538 150.832 215.17 151.04C214.802 151.232 214.498 151.48 214.258 151.784C214.002 152.104 213.802 152.464 213.658 152.864C213.53 153.264 213.466 153.664 213.466 154.064C213.466 154.496 213.53 154.912 213.658 155.312C213.802 155.712 214.002 156.072 214.258 156.392C214.514 156.696 214.826 156.944 215.194 157.136C215.562 157.328 215.97 157.424 216.418 157.424C216.882 157.424 217.298 157.336 217.666 157.16C218.05 156.968 218.37 156.712 218.626 156.392C218.882 156.088 219.074 155.736 219.202 155.336C219.346 154.936 219.418 154.52 219.418 154.088ZM247.588 152.6C247.588 153.4 247.428 154.136 247.108 154.808C246.788 155.464 246.356 156.032 245.812 156.512C245.252 156.992 244.588 157.368 243.82 157.64C243.052 157.896 242.212 158.024 241.3 158.024C240.356 158.024 239.5 157.888 238.732 157.616C237.98 157.344 237.332 156.968 236.788 156.488C236.244 156.008 235.828 155.44 235.54 154.784C235.252 154.112 235.108 153.392 235.108 152.624C235.108 151.808 235.276 151.072 235.612 150.416C235.948 149.76 236.396 149.192 236.956 148.712C237.532 148.248 238.188 147.888 238.924 147.632C239.676 147.376 240.468 147.248 241.3 147.248C242.132 147.248 242.924 147.376 243.676 147.632C244.444 147.888 245.116 148.248 245.692 148.712C246.268 149.176 246.724 149.736 247.06 150.392C247.412 151.048 247.588 151.784 247.588 152.6ZM251.812 164.24H231.292V161.816H236.668V158H239.236V161.816H243.556V157.856H246.148V161.816H251.812V164.24ZM244.876 152.624C244.876 151.744 244.524 151.032 243.82 150.488C243.132 149.944 242.292 149.672 241.3 149.672C240.292 149.672 239.452 149.936 238.78 150.464C238.108 150.992 237.772 151.712 237.772 152.624C237.772 153.552 238.1 154.288 238.756 154.832C239.428 155.376 240.276 155.648 241.3 155.648C242.308 155.648 243.156 155.384 243.844 154.856C244.532 154.312 244.876 153.568 244.876 152.624ZM257.176 146.528L256.888 160.4H254.728L254.44 146.528H257.176ZM257.368 166.16H254.248V163.064H257.368V166.16Z" fill="#AEAEAE"/>
<rect x="51.5" y="3.5" width="157" height="110" stroke="#DADADA" stroke-width="7"/>
<line x1="49.5345" y1="4.85431" x2="131.534" y2="44.8543" stroke="#DADADA" stroke-width="7"/>
<line x1="128.387" y1="44.8941" x2="205.387" y2="4.89408" stroke="#DADADA" stroke-width="7"/>
<circle cx="90" cy="66" r="5" fill="#D9D9D9"/>
<circle cx="125" cy="66" r="5" fill="#D9D9D9"/>
<path d="M95 96C99.8 79.7001 115.667 89.2084 123 96" stroke="#DADADA" stroke-width="7"/>
</svg>
