<svg width="800" height="800" viewBox="0 0 800 800" fill="none" xmlns="http://www.w3.org/2000/svg">
<rect width="800" height="800" rx="80" fill="#6CCAFF"/>
<path d="M378.906 266.25C378.906 327.639 331.56 375.5 275.453 375.5C219.346 375.5 172 327.639 172 266.25C172 204.861 219.346 157 275.453 157C331.56 157 378.906 204.861 378.906 266.25Z" fill="#6CCAFF" stroke="white" stroke-width="50"/>
<path d="M628 266.25C628 327.639 580.654 375.5 524.547 375.5C468.44 375.5 421.094 327.639 421.094 266.25C421.094 204.861 468.44 157 524.547 157C580.654 157 628 204.861 628 266.25Z" fill="#6CCAFF" stroke="white" stroke-width="50"/>
<mask id="path-4-inside-1_720_5979" fill="white">
<path d="M173.038 333.813H635.642V669H173.038V333.813Z"/>
</mask>
<path d="M173.038 333.813H635.642V669H173.038V333.813Z" fill="#6CCAFF"/>
<path d="M635.642 669V719H685.642V669H635.642ZM173.038 669H123.038V719H173.038V669ZM585.642 333.813V669H685.642V333.813H585.642ZM635.642 619H173.038V719H635.642V619ZM223.038 669V333.813H123.038V669H223.038Z" fill="white" mask="url(#path-4-inside-1_720_5979)"/>
<line y1="-25" x2="301.218" y2="-25" transform="matrix(0.736376 0.676573 -0.668531 0.743684 184.699 362.542)" stroke="white" stroke-width="50"/>
<line x1="613.274" y1="324.602" x2="395.011" y2="551.338" stroke="white" stroke-width="50"/>
<rect x="319.717" y="278.534" width="168.377" height="96.5196" fill="#6CCAFF"/>
</svg>
